<?xml version="1.0"?>
<svg xmlns="http://www.w3.org/2000/svg" height="512px" viewBox="-31 -19 622 622.66734" width="512px" class=""><g><path d="m559.183594 229.847656c-.074219-60.683594-49.246094-109.855468-109.925782-109.925781-12.535156-.046875-24.984374 2.085937-36.789062 6.304687-3.132812 1.128907-6.625.621094-9.308594-1.351562-2.683594-1.976562-4.207031-5.164062-4.058594-8.492188.101563-2.148437.1875-4.300781.1875-6.457031-.242187-51.195312-35.59375-95.535156-85.449218-107.179687-1.894532-.445313-3.773438-.785156-5.648438-1.046875-3.316406-.621094-6.105468-1-8.996094-1.25-3.195312-.257813-6.511718-.449219-9.832031-.449219-29.589843-.09375-57.949219 11.804688-78.617187 32.980469-6.929688 6.992187-12.824219 14.941406-17.507813 23.601562l-.328125.621094c-.074218.128906-.140625.277344-.21875.421875-3.738281 6.757812-6.707031 13.910156-8.855468 21.320312-1.828126 6.339844-3.085938 12.828126-3.757813 19.386719-.449219 3.851563-.660156 7.71875-.640625 11.59375-.023438 4.757813.285156 9.515625.90625 14.230469.484375 3.503906-.921875 6.996094-3.691406 9.191406-2.773438 2.195313-6.496094 2.761719-9.792969 1.496094-8.753906-3.316406-18.039063-4.988281-27.394531-4.929688-11.9375.003907-23.71875 2.679688-34.488282 7.828126-3.457031 1.707031-6.792968 3.636718-9.992187 5.78125-1.742187 1.132812-3.414063 2.378906-5 3.726562-3.195313 2.503906-6.199219 5.242188-8.992187 8.1875-2.546876 2.691406-4.882813 5.574219-6.992188 8.625-6.292969 8.976562-10.667969 19.15625-12.851562 29.898438-.773438 3.808593-3.679688 6.824218-7.457032 7.734374-5.019531 1.144532-9.890625 2.878907-14.5 5.179688-5.746094 2.789062-11.085937 6.34375-15.878906 10.558594-3.382812 2.917968-6.453125 6.175781-9.15625 9.734375-9.484375 12.195312-14.621094 27.203125-14.597656 42.652343.042968 38.617188 31.335937 69.910157 69.953125 69.953126h379.746093c3.089844 0 6.085938-.089844 9.085938-.359376 56.859375-5.003906 100.558594-52.484374 100.839844-109.566406zm0 0" data-original="#000000" class="active-path" data-old_color="#000000" fill="#B4B8BA"/><path d="m355.179688 423.859375c-4.039063 0-7.683594-2.4375-9.230469-6.167969-1.542969-3.738281-.691407-8.035156 2.164062-10.894531l28.261719-28.261719c3.925781-3.785156 10.15625-3.730468 14.011719.125 3.855469 3.851563 3.90625 10.089844.121093 14.007813l-28.261718 28.261719c-1.875 1.875-4.417969 2.929687-7.066406 2.929687zm0 0" data-original="#000000" class="active-path" data-old_color="#000000" fill="#B4B8BA"/><path d="m435.125 423.859375c-4.039062 0-7.683594-2.4375-9.230469-6.167969-1.542969-3.738281-.6875-8.035156 2.167969-10.894531l28.261719-28.261719c3.921875-3.785156 10.152343-3.730468 14.007812.125 3.855469 3.851563 3.910157 10.089844.121094 14.007813l-28.261719 28.261719c-1.875 1.875-4.414062 2.929687-7.066406 2.929687zm0 0" data-original="#000000" class="active-path" data-old_color="#000000" fill="#B4B8BA"/><path d="m355.179688 503.804688c-4.039063 0-7.683594-2.433594-9.230469-6.167969-1.542969-3.738281-.691407-8.03125 2.164062-10.890625l28.261719-28.261719c3.925781-3.789063 10.15625-3.734375 14.011719.121094s3.90625 10.089843.121093 14.007812l-28.261718 28.261719c-1.875 1.875-4.417969 2.929688-7.066406 2.929688zm0 0" data-original="#000000" class="active-path" data-old_color="#000000" fill="#B4B8BA"/><path d="m435.125 503.804688c-4.039062 0-7.683594-2.433594-9.230469-6.167969-1.542969-3.738281-.6875-8.03125 2.167969-10.890625l28.261719-28.261719c3.921875-3.789063 10.152343-3.734375 14.007812.121094s3.910157 10.089843.121094 14.007812l-28.261719 28.261719c-1.875 1.875-4.414062 2.929688-7.066406 2.929688zm0 0" data-original="#000000" class="active-path" data-old_color="#000000" fill="#B4B8BA"/><path d="m315.207031 583.75c-4.039062 0-7.6875-2.433594-9.234375-6.167969-1.539062-3.738281-.6875-8.03125 2.167969-10.890625l28.261719-28.261718c3.925781-3.785157 10.15625-3.734376 14.011718.121093 3.851563 3.855469 3.90625 10.089844.121094 14.011719l-28.261718 28.261719c-1.875 1.871093-4.417969 2.925781-7.066407 2.925781zm0 0" data-original="#000000" class="active-path" data-old_color="#000000" fill="#B4B8BA"/><path d="m395.152344 583.75c-4.039063 0-7.683594-2.433594-9.230469-6.167969-1.542969-3.738281-.6875-8.03125 2.164063-10.890625l28.265624-28.261718c3.921876-3.785157 10.152344-3.734376 14.007813.121093s3.90625 10.089844.121094 14.011719l-28.261719 28.261719c-1.875 1.871093-4.417969 2.925781-7.066406 2.925781zm0 0" data-original="#000000" class="active-path" data-old_color="#000000" fill="#B4B8BA"/><path d="m115.339844 423.859375c-4.039063 0-7.683594-2.4375-9.230469-6.167969-1.542969-3.738281-.6875-8.035156 2.164063-10.894531l28.261718-28.261719c2.511719-2.59375 6.226563-3.640625 9.722656-2.722656 3.492188.914062 6.21875 3.640625 7.132813 7.136719.917969 3.496093-.125 7.210937-2.722656 9.71875l-28.261719 28.261719c-1.875 1.875-4.417969 2.929687-7.066406 2.929687zm0 0" data-original="#000000" class="active-path" data-old_color="#000000" fill="#B4B8BA"/><path d="m195.285156 423.859375c-4.039062 0-7.683594-2.4375-9.230468-6.167969-1.542969-3.738281-.6875-8.035156 2.167968-10.894531l28.261719-28.261719c2.507813-2.59375 6.226563-3.640625 9.71875-2.722656 3.492187.914062 6.222656 3.640625 7.132813 7.136719.917968 3.496093-.125 7.210937-2.722657 9.71875l-28.261719 28.261719c-1.875 1.875-4.414062 2.929687-7.066406 2.929687zm0 0" data-original="#000000" class="active-path" data-old_color="#000000" fill="#B4B8BA"/><path d="m75.367188 503.804688c-4.039063 0-7.6875-2.433594-9.230469-6.167969-1.542969-3.738281-.691407-8.03125 2.164062-10.890625l28.261719-28.261719c2.507812-2.597656 6.226562-3.640625 9.722656-2.722656 3.492188.910156 6.21875 3.636719 7.132813 7.132812.917969 3.5-.128907 7.210938-2.722657 9.71875l-28.261718 28.261719c-1.875 1.875-4.417969 2.929688-7.066406 2.929688zm0 0" data-original="#000000" class="active-path" data-old_color="#000000" fill="#B4B8BA"/><path d="m155.3125 503.804688c-4.039062 0-7.683594-2.433594-9.230469-6.167969-1.542969-3.738281-.6875-8.03125 2.164063-10.890625l28.265625-28.261719c2.507812-2.597656 6.226562-3.640625 9.71875-2.722656 3.492187.910156 6.222656 3.636719 7.132812 7.132812.917969 3.5-.125 7.210938-2.722656 9.71875l-28.261719 28.261719c-1.875 1.875-4.414062 2.929688-7.066406 2.929688zm0 0" data-original="#000000" class="active-path" data-old_color="#000000" fill="#B4B8BA"/><path d="m35.394531 583.75c-4.042969 0-7.6875-2.433594-9.234375-6.167969-1.539062-3.738281-.6875-8.03125 2.167969-10.890625l28.261719-28.261718c2.507812-2.597657 6.226562-3.640626 9.71875-2.722657 3.496094.910157 6.222656 3.640625 7.136718 7.132813.917969 3.5-.128906 7.210937-2.722656 9.722656l-28.261718 28.261719c-1.875 1.871093-4.417969 2.925781-7.066407 2.925781zm0 0" data-original="#000000" class="active-path" data-old_color="#000000" fill="#B4B8BA"/><path d="m115.339844 583.75c-4.039063 0-7.683594-2.433594-9.230469-6.167969-1.542969-3.738281-.6875-8.03125 2.164063-10.890625l28.261718-28.261718c2.511719-2.597657 6.226563-3.640626 9.722656-2.722657 3.492188.910157 6.21875 3.640625 7.132813 7.132813.917969 3.5-.125 7.210937-2.722656 9.722656l-28.261719 28.261719c-1.875 1.871093-4.417969 2.925781-7.066406 2.925781zm0 0" data-original="#000000" class="active-path" data-old_color="#000000" fill="#B4B8BA"/><path d="m329.335938 439.707031c0-5.519531-4.472657-9.992187-9.992188-9.992187h-55.820312l41.191406-41.183594c2.597656-2.507812 3.640625-6.222656 2.722656-9.714844-.910156-3.496094-3.640625-6.226562-7.132812-7.140625-3.496094-.914062-7.210938.125-9.71875 2.722657l-56.546876 56.523437c-.242187.320313-.46875.648437-.667968 1-2.472656 1.828125-3.941406 4.710937-3.964844 7.785156 0 5.519531 4.472656 9.992188 9.992188 9.992188h55.820312l-51.183594 51.175781c-2.597656 2.507812-3.640625 6.226562-2.722656 9.722656.910156 3.492188 3.636719 6.21875 7.132812 7.132813 3.492188.917969 7.210938-.128907 9.71875-2.722657l66.539063-66.519531c.242187-.316406.46875-.648437.667969-.992187 2.472656-1.832032 3.941406-4.714844 3.964844-7.789063zm0 0" data-original="#000000" class="active-path" data-old_color="#000000" fill="#B4B8BA"/><path d="m195.285156 583.75c-4.039062 0-7.683594-2.433594-9.230468-6.167969-1.542969-3.738281-.6875-8.03125 2.167968-10.890625l28.261719-28.261718c2.507813-2.597657 6.226563-3.640626 9.71875-2.722657 3.492187.910157 6.222656 3.640625 7.132813 7.132813.917968 3.5-.125 7.210937-2.722657 9.722656l-28.261719 28.261719c-1.875 1.871093-4.414062 2.925781-7.066406 2.925781zm0 0" data-original="#000000" class="active-path" data-old_color="#000000" fill="#B4B8BA"/><script xmlns="" class="active-path"/></g> </svg>
