<?xml version="1.0"?>
<svg xmlns="http://www.w3.org/2000/svg" xmlns:xlink="http://www.w3.org/1999/xlink" version="1.1" id="Capa_1" x="0px" y="0px" viewBox="0 0 511.563 511.563" style="enable-background:new 0 0 511.563 511.563;" xml:space="preserve" width="512px" height="512px" class=""><g><g>
	<path style="fill:#C4C8D1;" d="M445.816,130.635c0.524-4.445,0.801-8.965,0.801-13.551c0-63.305-51.319-114.624-114.623-114.624   c-48.311,0-89.638,29.89-106.506,72.185c-16.84-13.018-37.959-20.768-60.89-20.768c-55.037,0-99.654,44.616-99.654,99.654   c0,8.13,0.981,16.03,2.818,23.595c-0.935-0.04-1.873-0.071-2.818-0.071C29.077,177.054,0,206.131,0,241.999   c0,35.868,29.077,64.945,64.945,64.945c34.22,0,312.196,0,356.833,0c49.586,0,89.784-40.198,89.784-89.784   C511.563,175.9,483.73,141.146,445.816,130.635z" data-original="#C4C8D1" class=""/>
	<g>
		<g>
			<g>
				<path style="fill:#B4B7BF;" d="M445.816,130.635c0.524-4.445,0.801-8.965,0.801-13.551c0-63.305-51.319-114.623-114.623-114.623      c-48.311,0-89.638,29.89-106.506,72.184c-16.84-13.018-37.959-20.768-60.89-20.768c-43.509,0-80.511,27.898-94.101,66.77      c16.441-11.964,36.69-19.039,58.58-19.039c6.369,0,12.598,0.598,18.635,1.74c24.808,4.696,50.559-2.807,68.605-20.466      c20.667-20.224,48.955-32.691,80.156-32.691c56.703,0,103.01,40.918,112.744,93.787c3.604,19.578,14.62,36.96,30.59,48.844      c21.989,16.364,36.234,42.551,36.234,72.068c0,9.298-1.413,18.266-4.037,26.7c23.867-16.137,39.558-43.452,39.558-74.432      C511.563,175.9,483.73,141.146,445.816,130.635z" data-original="#B4B7BF" class=""/>
			</g>
		</g>
	</g>
	<path style="fill:#FEDB41;" d="M229.613,306.944l-43.333,68.83c-3.874,6.154-0.926,14.309,5.987,16.563l32.527,10.606   c7.056,2.301,9.945,10.718,5.789,16.867l-57.495,85.075c-1.612,2.386,1.144,5.296,3.613,3.815l148.47-89.012   c8.089-4.85,6.893-16.923-1.99-20.092l-43.865-15.645c-6.574-2.345-9.409-10.078-5.908-16.116l35.304-60.89H229.613z" data-original="#FEDB41"/>
	<path style="fill:#CFB235;" d="M229.613,306.944l-17.718,28.144c26.664,0,54.282,0,80.501,0l16.318-28.144H229.613z" data-original="#CFB235" class="active-path"/>
</g><script xmlns=""/></g> </svg>
